# This file uses centimeters as units for non-parametric coordinates.

mtllib leaves2.mtl
g default
v 0.545697 8.470383 -0.220257
v -0.194757 8.470383 -0.439572
v -0.677998 8.470383 0.174937
v -0.788555 8.320477 1.160533
v -0.194757 8.470383 1.775042
v 0.545697 8.470383 1.555726
v 0.875230 8.704786 0.667735
v 0.983312 8.914808 -0.932370
v -0.350940 8.914808 -1.327564
v -1.176837 8.914808 -0.220257
v -1.420927 8.914808 1.555726
v -0.350940 8.641183 2.663033
v 0.983312 8.914808 2.267840
v 1.263811 9.142624 0.667735
v 1.226170 9.557023 -1.327564
v -0.437615 9.385134 -1.820362
v -2.064044 9.557023 -0.439572
v -1.771867 9.557023 1.775042
v -0.437615 9.557023 3.155832
v 1.226170 9.652466 2.663033
v 1.966624 9.557023 0.667735
v 1.430686 10.269826 -1.221575
v -0.437615 10.269826 -1.521913
v -2.064044 10.269826 -0.439572
v -1.771867 10.269826 1.775042
v -0.437615 10.269826 3.155832
v 1.226170 10.269826 2.436918
v 1.804860 10.269826 0.667735
v 0.983312 10.912041 -0.932370
v -0.350940 10.912041 -1.327564
v -1.127465 10.912041 -0.220257
v -1.420927 10.702540 1.555726
v -0.350940 11.113198 2.381552
v 0.983312 10.912041 2.267840
v 1.577110 11.172404 0.667735
v 0.545697 11.356466 -0.220257
v -0.194757 11.356466 -0.727576
v -0.788555 11.356466 0.174937
v -1.201842 11.356466 1.160533
v -0.194757 11.356466 1.775042
v 0.545697 11.356466 1.555726
v 0.875230 11.356466 0.667735
v 0.000000 8.311769 0.667735
v 0.000000 11.515080 0.667735
vt 0.000000 0.142857
vt 0.142857 0.142857
vt 0.285714 0.142857
vt 0.428571 0.142857
vt 0.571429 0.142857
vt 0.714286 0.142857
vt 0.857143 0.142857
vt 1.000000 0.142857
vt 0.000000 0.285714
vt 0.142857 0.285714
vt 0.285714 0.285714
vt 0.428571 0.285714
vt 0.571429 0.285714
vt 0.714286 0.285714
vt 0.857143 0.285714
vt 1.000000 0.285714
vt 0.000000 0.428571
vt 0.142857 0.428571
vt 0.285714 0.428571
vt 0.428571 0.428571
vt 0.571429 0.428571
vt 0.714286 0.428571
vt 0.857143 0.428571
vt 1.000000 0.428571
vt 0.000000 0.571429
vt 0.142857 0.571429
vt 0.285714 0.571429
vt 0.428571 0.571429
vt 0.571429 0.571429
vt 0.714286 0.571429
vt 0.857143 0.571429
vt 1.000000 0.571429
vt 0.000000 0.714286
vt 0.142857 0.714286
vt 0.285714 0.714286
vt 0.428571 0.714286
vt 0.571429 0.714286
vt 0.714286 0.714286
vt 0.857143 0.714286
vt 1.000000 0.714286
vt 0.000000 0.857143
vt 0.142857 0.857143
vt 0.285714 0.857143
vt 0.428571 0.857143
vt 0.571429 0.857143
vt 0.714286 0.857143
vt 0.857143 0.857143
vt 1.000000 0.857143
vt 0.071429 0.000000
vt 0.214286 0.000000
vt 0.357143 0.000000
vt 0.500000 0.000000
vt 0.642857 0.000000
vt 0.785714 0.000000
vt 0.928572 0.000000
vt 0.071429 1.000000
vt 0.214286 1.000000
vt 0.357143 1.000000
vt 0.500000 1.000000
vt 0.642857 1.000000
vt 0.785714 1.000000
vt 0.928572 1.000000
vn 0.406206 -0.885272 -0.226475
vn -0.136951 -0.915110 -0.379235
vn -0.179455 -0.798792 -0.574218
vn 0.501032 -0.767103 -0.400648
vn -0.513692 -0.834789 -0.198109
vn -0.615803 -0.754850 -0.225805
vn -0.463862 -0.884126 0.056160
vn -0.683773 -0.689976 0.237461
vn -0.074953 -0.953249 0.292743
vn -0.188419 -0.699039 0.689814
vn 0.435686 -0.886245 0.157316
vn 0.535740 -0.700679 0.471202
vn 0.653623 -0.756820 0.000000
vn 0.722924 -0.690833 0.011407
vn -0.232942 -0.251894 -0.939302
vn 0.632624 -0.232506 -0.738734
vn -0.889348 -0.307560 -0.338330
vn -0.867506 -0.321635 0.379451
vn -0.250463 -0.247024 0.936081
vn 0.663120 -0.236764 0.710081
vn 0.950238 -0.311159 0.015084
vn -0.248189 0.352448 -0.902321
vn 0.731780 0.264086 -0.628297
vn -0.855068 0.395350 -0.335495
vn -0.848387 0.368039 0.380508
vn -0.232542 0.359081 0.903872
vn 0.716894 0.316342 0.621282
vn 0.971051 0.238145 0.018608
vn -0.190051 0.661581 -0.725390
vn 0.544066 0.613532 -0.572338
vn -0.651443 0.700944 -0.290345
vn -0.650544 0.714354 0.257858
vn -0.197556 0.725075 0.659726
vn 0.547767 0.605562 0.577275
vn 0.778724 0.627163 0.015981
vn -0.128609 0.894214 -0.428768
vn 0.262503 0.920674 -0.288879
vn -0.589594 0.777352 -0.219323
vn -0.647206 0.756429 0.094550
vn -0.134653 0.909906 0.392351
vn 0.243181 0.930048 0.275453
vn 0.328188 0.944613 0.000000
vn 0.134769 -0.990670 -0.020241
vn -0.000831 0.999994 0.003500
s 1
g Leaf
usemtl initialShadingGroup
f 1/1/1 2/2/2 9/10/3 8/9/4
f 2/2/2 3/3/5 10/11/6 9/10/3
f 3/3/5 4/4/7 11/12/8 10/11/6
f 4/4/7 5/5/9 12/13/10 11/12/8
f 5/5/9 6/6/11 13/14/12 12/13/10
f 6/6/11 7/7/13 14/15/14 13/14/12
f 7/7/13 1/8/1 8/16/4 14/15/14
f 8/9/4 9/10/3 16/18/15 15/17/16
f 9/10/3 10/11/6 17/19/17 16/18/15
f 10/11/6 11/12/8 18/20/18 17/19/17
f 11/12/8 12/13/10 19/21/19 18/20/18
f 12/13/10 13/14/12 20/22/20 19/21/19
f 13/14/12 14/15/14 21/23/21 20/22/20
f 14/15/14 8/16/4 15/24/16 21/23/21
f 15/17/16 16/18/15 23/26/22 22/25/23
f 16/18/15 17/19/17 24/27/24 23/26/22
f 17/19/17 18/20/18 25/28/25 24/27/24
f 18/20/18 19/21/19 26/29/26 25/28/25
f 19/21/19 20/22/20 27/30/27 26/29/26
f 20/22/20 21/23/21 28/31/28 27/30/27
f 21/23/21 15/24/16 22/32/23 28/31/28
f 22/25/23 23/26/22 30/34/29 29/33/30
f 23/26/22 24/27/24 31/35/31 30/34/29
f 24/27/24 25/28/25 32/36/32 31/35/31
f 25/28/25 26/29/26 33/37/33 32/36/32
f 26/29/26 27/30/27 34/38/34 33/37/33
f 27/30/27 28/31/28 35/39/35 34/38/34
f 28/31/28 22/32/23 29/40/30 35/39/35
f 29/33/30 30/34/29 37/42/36 36/41/37
f 30/34/29 31/35/31 38/43/38 37/42/36
f 31/35/31 32/36/32 39/44/39 38/43/38
f 32/36/32 33/37/33 40/45/40 39/44/39
f 33/37/33 34/38/34 41/46/41 40/45/40
f 34/38/34 35/39/35 42/47/42 41/46/41
f 35/39/35 29/40/30 36/48/37 42/47/42
f 2/2/2 1/1/1 43/49/43
f 3/3/5 2/2/2 43/50/43
f 4/4/7 3/3/5 43/51/43
f 5/5/9 4/4/7 43/52/43
f 6/6/11 5/5/9 43/53/43
f 7/7/13 6/6/11 43/54/43
f 1/8/1 7/7/13 43/55/43
f 36/41/37 37/42/36 44/56/44
f 37/42/36 38/43/38 44/57/44
f 38/43/38 39/44/39 44/58/44
f 39/44/39 40/45/40 44/59/44
f 40/45/40 41/46/41 44/60/44
f 41/46/41 42/47/42 44/61/44
f 42/47/42 36/48/37 44/62/44
