# This file uses centimeters as units for non-parametric coordinates.

mtllib leaves3.mtl
g default
v 0.748056 8.723907 0.218886
v -0.266978 8.723907 -0.037266
v -0.929417 8.723907 0.680455
v -1.080972 8.646777 1.831590
v -0.266978 8.723907 2.549311
v 0.748056 8.723907 2.293159
v 1.199788 8.844512 1.256022
v 1.347950 8.952573 -0.612833
v -0.481078 8.952573 -1.074402
v -1.613239 8.952573 0.218886
v -1.947844 8.952573 2.293159
v -0.481078 8.811787 3.586447
v 1.347950 8.952573 3.124878
v 1.732465 9.069789 1.256022
v 1.680866 9.283007 -1.074402
v -0.599894 9.194566 -1.649969
v -2.829446 9.283007 -0.037266
v -2.428922 9.283007 2.549310
v -0.599894 9.283007 4.162014
v 1.680866 9.332114 3.586447
v 2.695900 9.283007 1.256022
v 1.961222 9.649759 -0.950612
v -0.599894 9.837181 -1.696471
v -2.829446 9.649759 -0.037266
v -2.428922 9.649759 2.549310
v -0.599894 9.649759 4.162014
v 1.680866 9.649759 3.322354
v 2.474149 9.649759 1.256022
v 1.347950 9.980192 -0.612833
v -0.481078 10.227365 -1.074402
v -1.545559 9.980192 0.218886
v -1.947844 9.872400 2.293159
v -0.481078 10.291980 3.508885
v 1.347950 10.293564 3.124878
v 2.161944 10.114155 1.256022
v 0.748056 10.376308 0.463360
v -0.266978 10.097551 -0.373641
v -1.080972 10.208858 0.680455
v -1.647516 10.448685 1.831590
v -0.266978 10.470171 2.711124
v 0.748056 10.208858 2.293159
v 1.199788 10.058771 1.256022
v 0.000000 8.642296 1.256022
v 0.000000 10.290469 1.256022
vt 0.000000 0.142857
vt 0.142857 0.142857
vt 0.285714 0.142857
vt 0.428571 0.142857
vt 0.571429 0.142857
vt 0.714286 0.142857
vt 0.857143 0.142857
vt 1.000000 0.142857
vt 0.000000 0.285714
vt 0.142857 0.285714
vt 0.285714 0.285714
vt 0.428571 0.285714
vt 0.571429 0.285714
vt 0.714286 0.285714
vt 0.857143 0.285714
vt 1.000000 0.285714
vt 0.000000 0.428571
vt 0.142857 0.428571
vt 0.285714 0.428571
vt 0.428571 0.428571
vt 0.571429 0.428571
vt 0.714286 0.428571
vt 0.857143 0.428571
vt 1.000000 0.428571
vt 0.000000 0.571429
vt 0.142857 0.571429
vt 0.285714 0.571429
vt 0.428571 0.571429
vt 0.571429 0.571429
vt 0.714286 0.571429
vt 0.857143 0.571429
vt 1.000000 0.571429
vt 0.000000 0.714286
vt 0.142857 0.714286
vt 0.285714 0.714286
vt 0.428571 0.714286
vt 0.571429 0.714286
vt 0.714286 0.714286
vt 0.857143 0.714286
vt 1.000000 0.714286
vt 0.000000 0.857143
vt 0.142857 0.857143
vt 0.285714 0.857143
vt 0.428571 0.857143
vt 0.571429 0.857143
vt 0.714286 0.857143
vt 0.857143 0.857143
vt 1.000000 0.857143
vt 0.071429 0.000000
vt 0.214286 0.000000
vt 0.357143 0.000000
vt 0.500000 0.000000
vt 0.642857 0.000000
vt 0.785714 0.000000
vt 0.928572 0.000000
vt 0.071429 1.000000
vt 0.214286 1.000000
vt 0.357143 1.000000
vt 0.500000 1.000000
vt 0.642857 1.000000
vt 0.785714 1.000000
vt 0.928572 1.000000
vn 0.057078 -0.972412 -0.226178
vn 0.057078 -0.972412 -0.226178
vn 0.057078 -0.972412 -0.226178
vn 0.057078 -0.972412 -0.226179
vn -0.197308 -0.964400 -0.176075
vn -0.197308 -0.964400 -0.176075
vn -0.197308 -0.964400 -0.176075
vn -0.197308 -0.964400 -0.176075
vn -0.325014 -0.942999 -0.071539
vn -0.325014 -0.942999 -0.071539
vn -0.325014 -0.943000 -0.071539
vn -0.325014 -0.942999 -0.071539
vn -0.155022 -0.977229 0.144883
vn -0.155022 -0.977229 0.144883
vn -0.155022 -0.977229 0.144883
vn -0.155022 -0.977229 0.144883
vn 0.086368 -0.985056 0.149018
vn 0.086368 -0.985055 0.149018
vn 0.086368 -0.985055 0.149018
vn 0.086368 -0.985056 0.149018
vn 0.355506 -0.934317 0.025840
vn 0.355506 -0.934317 0.025839
vn 0.355506 -0.934317 0.025840
vn 0.355506 -0.934317 0.025840
vn 0.355506 -0.934317 -0.025839
vn 0.355506 -0.934317 -0.025840
vn 0.355506 -0.934317 -0.025839
vn 0.355506 -0.934317 -0.025840
vn 0.134353 -0.879037 -0.457432
vn 0.134353 -0.879037 -0.457432
vn 0.134353 -0.879037 -0.457431
vn 0.134353 -0.879037 -0.457431
vn -0.243607 -0.936208 -0.253318
vn -0.243607 -0.936208 -0.253318
vn -0.243607 -0.936208 -0.253318
vn -0.243607 -0.936208 -0.253318
vn -0.362829 -0.931842 0.005132
vn -0.362829 -0.931842 0.005132
vn -0.362829 -0.931842 0.005132
vn -0.362829 -0.931842 0.005132
vn -0.428269 -0.784960 0.447687
vn -0.428269 -0.784960 0.447687
vn -0.428269 -0.784960 0.447687
vn -0.428269 -0.784960 0.447687
vn 0.187265 -0.778081 0.599602
vn 0.187265 -0.778081 0.599602
vn 0.187265 -0.778081 0.599602
vn 0.187265 -0.778081 0.599602
vn 0.380047 -0.918189 0.111772
vn 0.380047 -0.918189 0.111772
vn 0.380047 -0.918189 0.111772
vn 0.380047 -0.918189 0.111772
vn 0.356739 -0.929569 -0.092948
vn 0.356739 -0.929569 -0.092948
vn 0.356739 -0.929569 -0.092948
vn 0.356739 -0.929569 -0.092948
vn 0.263301 0.000736 -0.964714
vn 0.263301 0.000736 -0.964714
vn 0.263301 0.000736 -0.964713
vn 0.263301 0.000736 -0.964714
vn -0.590644 -0.037136 -0.806078
vn -0.590644 -0.037136 -0.806078
vn -0.590644 -0.037136 -0.806078
vn -0.590644 -0.037136 -0.806078
vn -0.988223 0.000000 0.153024
vn -0.988223 0.000000 0.153024
vn -0.988223 0.000000 0.153024
vn -0.988223 0.000000 0.153024
vn -0.661358 0.000000 0.750071
vn -0.661358 0.000000 0.750071
vn -0.661358 0.000000 0.750071
vn -0.661358 0.000000 0.750071
vn 0.274598 0.346165 0.897088
vn 0.274598 0.346165 0.897088
vn 0.274598 0.346165 0.897088
vn 0.274598 0.346165 0.897088
vn 0.846429 0.406830 0.343579
vn 0.846429 0.406830 0.343579
vn 0.846429 0.406830 0.343579
vn 0.846429 0.406830 0.343579
vn 0.947474 -0.021849 -0.319085
vn 0.947474 -0.021849 -0.319085
vn 0.947474 -0.021849 -0.319085
vn 0.947474 -0.021849 -0.319085
vn 0.222412 0.831237 -0.509487
vn 0.222412 0.831237 -0.509487
vn 0.222412 0.831237 -0.509487
vn 0.222412 0.831237 -0.509487
vn -0.326984 0.916643 -0.229883
vn -0.326984 0.916644 -0.229883
vn -0.326984 0.916644 -0.229883
vn -0.326984 0.916643 -0.229883
vn -0.298953 0.954016 0.021951
vn -0.298953 0.954015 0.021951
vn -0.298953 0.954015 0.021951
vn -0.298953 0.954015 0.021951
vn -0.466270 0.773934 0.428508
vn -0.466270 0.773934 0.428508
vn -0.466270 0.773934 0.428508
vn -0.466270 0.773934 0.428507
vn 0.235618 0.563120 0.792073
vn 0.235618 0.563120 0.792073
vn 0.235618 0.563120 0.792073
vn 0.235618 0.563120 0.792073
vn 0.799224 0.519207 0.302762
vn 0.799224 0.519207 0.302762
vn 0.799225 0.519207 0.302762
vn 0.799225 0.519207 0.302762
vn 0.589080 0.778288 -0.217379
vn 0.589079 0.778288 -0.217379
vn 0.589079 0.778288 -0.217379
vn 0.589079 0.778288 -0.217379
vn 0.051589 0.989220 -0.137049
vn 0.051589 0.989220 -0.137049
vn 0.051589 0.989220 -0.137049
vn 0.051589 0.989220 -0.137049
vn -0.102683 0.994410 -0.024615
vn -0.102683 0.994410 -0.024615
vn -0.102683 0.994410 -0.024615
vn -0.102683 0.994410 -0.024615
vn -0.703928 0.668916 -0.238824
vn -0.703928 0.668916 -0.238825
vn -0.703928 0.668916 -0.238825
vn -0.703928 0.668916 -0.238825
vn -0.390003 0.851389 0.350762
vn -0.390003 0.851389 0.350762
vn -0.390003 0.851389 0.350762
vn -0.390003 0.851389 0.350762
vn 0.100210 0.994408 0.033325
vn 0.100210 0.994408 0.033325
vn 0.100210 0.994408 0.033325
vn 0.100210 0.994408 0.033325
vn -0.023606 0.992153 -0.122778
vn -0.023606 0.992153 -0.122778
vn -0.023606 0.992153 -0.122778
vn -0.023606 0.992153 -0.122778
vn 0.196139 0.980240 -0.025666
vn 0.196139 0.980240 -0.025666
vn 0.196139 0.980240 -0.025666
vn 0.196139 0.980240 -0.025666
vn 0.016760 -0.997651 -0.066415
vn 0.016760 -0.997651 -0.066415
vn 0.016760 -0.997651 -0.066415
vn -0.055712 -0.997122 -0.051421
vn -0.055712 -0.997122 -0.051421
vn -0.055712 -0.997122 -0.051421
vn -0.042672 -0.996464 -0.072383
vn -0.042672 -0.996464 -0.072383
vn -0.042672 -0.996464 -0.072383
vn 0.032993 -0.997021 0.069725
vn 0.032993 -0.997021 0.069725
vn 0.032993 -0.997021 0.069725
vn 0.016760 -0.997651 0.066415
vn 0.016760 -0.997651 0.066415
vn 0.016760 -0.997651 0.066415
vn 0.166051 -0.985212 -0.042242
vn 0.166051 -0.985212 -0.042242
vn 0.166051 -0.985212 -0.042242
vn 0.166051 -0.985212 0.042243
vn 0.166051 -0.985212 0.042243
vn 0.166051 -0.985212 0.042243
vn -0.199815 0.976325 -0.082842
vn -0.199815 0.976325 -0.082842
vn -0.199815 0.976325 -0.082842
vn -0.013565 0.993232 -0.115355
vn -0.013565 0.993232 -0.115355
vn -0.013565 0.993232 -0.115355
vn 0.027549 0.981229 -0.190871
vn 0.027549 0.981229 -0.190871
vn 0.027549 0.981229 -0.190871
vn 0.056064 0.992099 -0.112234
vn 0.056064 0.992099 -0.112234
vn 0.056064 0.992099 -0.112234
vn 0.217390 0.972781 -0.080249
vn 0.217390 0.972781 -0.080249
vn 0.217390 0.972781 -0.080249
vn 0.189278 0.980126 -0.059398
vn 0.189278 0.980126 -0.059398
vn 0.189278 0.980125 -0.059398
vn 0.182338 0.944191 0.274328
vn 0.182338 0.944191 0.274328
vn 0.182338 0.944191 0.274328
s off
g Leaf
usemtl initialShadingGroup
f 1/1/1 2/2/2 9/10/3 8/9/4
f 2/2/5 3/3/6 10/11/7 9/10/8
f 3/3/9 4/4/10 11/12/11 10/11/12
f 4/4/13 5/5/14 12/13/15 11/12/16
f 5/5/17 6/6/18 13/14/19 12/13/20
f 6/6/21 7/7/22 14/15/23 13/14/24
f 7/7/25 1/8/26 8/16/27 14/15/28
f 8/9/29 9/10/30 16/18/31 15/17/32
f 9/10/33 10/11/34 17/19/35 16/18/36
f 10/11/37 11/12/38 18/20/39 17/19/40
f 11/12/41 12/13/42 19/21/43 18/20/44
f 12/13/45 13/14/46 20/22/47 19/21/48
f 13/14/49 14/15/50 21/23/51 20/22/52
f 14/15/53 8/16/54 15/24/55 21/23/56
f 15/17/57 16/18/58 23/26/59 22/25/60
f 16/18/61 17/19/62 24/27/63 23/26/64
f 17/19/65 18/20/66 25/28/67 24/27/68
f 18/20/69 19/21/70 26/29/71 25/28/72
f 19/21/73 20/22/74 27/30/75 26/29/76
f 20/22/77 21/23/78 28/31/79 27/30/80
f 21/23/81 15/24/82 22/32/83 28/31/84
f 22/25/85 23/26/86 30/34/87 29/33/88
f 23/26/89 24/27/90 31/35/91 30/34/92
f 24/27/93 25/28/94 32/36/95 31/35/96
f 25/28/97 26/29/98 33/37/99 32/36/100
f 26/29/101 27/30/102 34/38/103 33/37/104
f 27/30/105 28/31/106 35/39/107 34/38/108
f 28/31/109 22/32/110 29/40/111 35/39/112
f 29/33/113 30/34/114 37/42/115 36/41/116
f 30/34/117 31/35/118 38/43/119 37/42/120
f 31/35/121 32/36/122 39/44/123 38/43/124
f 32/36/125 33/37/126 40/45/127 39/44/128
f 33/37/129 34/38/130 41/46/131 40/45/132
f 34/38/133 35/39/134 42/47/135 41/46/136
f 35/39/137 29/40/138 36/48/139 42/47/140
f 2/2/141 1/1/142 43/49/143
f 3/3/144 2/2/145 43/50/146
f 4/4/147 3/3/148 43/51/149
f 5/5/150 4/4/151 43/52/152
f 6/6/153 5/5/154 43/53/155
f 7/7/156 6/6/157 43/54/158
f 1/8/159 7/7/160 43/55/161
f 36/41/162 37/42/163 44/56/164
f 37/42/165 38/43/166 44/57/167
f 38/43/168 39/44/169 44/58/170
f 39/44/171 40/45/172 44/59/173
f 40/45/174 41/46/175 44/60/176
f 41/46/177 42/47/178 44/61/179
f 42/47/180 36/48/181 44/62/182
