# This file uses centimeters as units for non-parametric coordinates.

mtllib rock1.mtl
g default
v 0.321225 0.802650 -0.840666
v -0.840979 0.817612 -0.519560
v -0.840979 0.750248 0.519560
v 0.321225 0.800736 0.840666
v 1.039507 0.719463 0.000000
v 0.519754 1.301197 -1.360226
v -1.360732 1.301197 -0.840666
v -1.360732 1.301197 0.660103
v 0.519753 1.301197 1.143742
v 1.681957 1.301197 0.000000
v 0.519754 1.773518 -1.360226
v -1.360732 1.773518 -0.840666
v -1.155694 1.680225 0.840666
v 0.519753 1.773518 1.268124
v 1.681957 1.773518 0.000000
v 0.321225 2.155633 -0.840666
v -0.587285 2.013599 -0.254679
v -0.840979 1.959805 0.519560
v 0.321225 2.155633 1.096552
v 1.039507 2.155633 0.000000
v 0.000000 0.773126 0.000000
v 0.385072 2.342739 0.000000
vt 0.000000 0.200000
vt 0.200000 0.200000
vt 0.400000 0.200000
vt 0.600000 0.200000
vt 0.800000 0.200000
vt 1.000000 0.200000
vt 0.000000 0.400000
vt 0.200000 0.400000
vt 0.400000 0.400000
vt 0.600000 0.400000
vt 0.800000 0.400000
vt 1.000000 0.400000
vt 0.000000 0.600000
vt 0.200000 0.600000
vt 0.400000 0.600000
vt 0.600000 0.600000
vt 0.800000 0.600000
vt 1.000000 0.600000
vt 0.000000 0.800000
vt 0.200000 0.800000
vt 0.400000 0.800000
vt 0.600000 0.800000
vt 0.800000 0.800000
vt 1.000000 0.800000
vt 0.100000 0.000000
vt 0.300000 0.000000
vt 0.500000 0.000000
vt 0.700000 0.000000
vt 0.900000 0.000000
vt 0.100000 1.000000
vt 0.300000 1.000000
vt 0.500000 1.000000
vt 0.700000 1.000000
vt 0.900000 1.000000
vn 0.153375 -0.809845 -0.566239
vn -0.407237 -0.830348 -0.380370
vn -0.705873 -0.358599 -0.610860
vn 0.259852 -0.389439 -0.883637
vn -0.428665 -0.772851 0.467919
vn -0.797404 -0.367537 0.478606
vn 0.136086 -0.710438 0.690477
vn 0.279246 -0.398419 0.873661
vn 0.555188 -0.831725 0.000214
vn 0.905487 -0.424294 -0.008268
vn -0.623896 0.551750 -0.553467
vn 0.239823 0.487759 -0.839390
vn -0.595192 0.261293 0.759916
vn 0.313756 0.280204 0.907217
vn 0.924967 0.380033 -0.003298
vn -0.307645 0.932239 -0.190485
vn 0.065449 0.916517 -0.394604
vn -0.387691 0.879268 0.276737
vn 0.063144 0.847709 0.526690
vn 0.517634 0.855571 -0.007344
vn -0.019185 -0.999659 -0.017696
vn -0.044694 0.998998 0.002202
s 1
g Rock
usemtl initialShadingGroup
f 1/1/1 2/2/2 7/8/3 6/7/4
f 2/2/2 3/3/5 8/9/6 7/8/3
f 3/3/5 4/4/7 9/10/8 8/9/6
f 4/4/7 5/5/9 10/11/10 9/10/8
f 5/5/9 1/6/1 6/12/4 10/11/10
f 6/7/4 7/8/3 12/14/11 11/13/12
f 7/8/3 8/9/6 13/15/13 12/14/11
f 8/9/6 9/10/8 14/16/14 13/15/13
f 9/10/8 10/11/10 15/17/15 14/16/14
f 10/11/10 6/12/4 11/18/12 15/17/15
f 11/13/12 12/14/11 17/20/16 16/19/17
f 12/14/11 13/15/13 18/21/18 17/20/16
f 13/15/13 14/16/14 19/22/19 18/21/18
f 14/16/14 15/17/15 20/23/20 19/22/19
f 15/17/15 11/18/12 16/24/17 20/23/20
f 2/2/2 1/1/1 21/25/21
f 3/3/5 2/2/2 21/26/21
f 4/4/7 3/3/5 21/27/21
f 5/5/9 4/4/7 21/28/21
f 1/6/1 5/5/9 21/29/21
f 16/19/17 17/20/16 22/30/22
f 17/20/16 18/21/18 22/31/22
f 18/21/18 19/22/19 22/32/22
f 19/22/19 20/23/20 22/33/22
f 20/23/20 16/24/17 22/34/22
