# This file uses centimeters as units for non-parametric coordinates.

mtllib trunk3.mtl
g default
v 0.754017 1.756148 -0.945508
v -0.269106 1.756148 -1.179029
v -1.089586 1.756148 -0.524717
v -1.089586 1.756148 0.524717
v -0.269106 1.756148 1.179029
v 0.754017 1.756148 0.945508
v 1.209350 1.756148 0.000000
v 0.754017 2.427892 -0.945508
v -0.269106 2.427892 -1.179029
v -1.089586 2.427892 -0.524717
v -1.089586 2.427892 0.524717
v -0.269106 2.427892 1.179029
v 0.754017 2.427892 0.945508
v 1.209350 2.427892 0.000000
v 0.000000 1.756148 0.000000
v 0.826357 3.284050 -0.863809
v -0.108360 3.284050 -1.077152
v -0.857945 3.284050 -0.479378
v -0.857946 3.284050 0.479378
v -0.108360 3.284050 1.077152
v 0.826357 3.284050 0.863809
v 1.242346 3.284050 0.000000
v 0.657283 4.376465 -0.633507
v -0.028227 4.376465 -0.789970
v -0.577963 4.376465 -0.351570
v -0.577964 4.376465 0.351569
v -0.028227 4.376465 0.789969
v 0.657283 4.376465 0.633506
v 0.962364 4.376465 -0.000000
v 0.405617 6.333409 -0.559764
v -0.200096 6.333409 -0.698014
v -0.685841 6.333409 -0.310645
v -0.685841 6.333409 0.310645
v -0.200097 6.333409 0.698013
v 0.405617 6.333409 0.559764
v 0.675185 6.333409 -0.000000
v 0.405617 8.429786 -0.320025
v -0.200096 8.429785 -0.458272
v -0.685841 8.429785 -0.070905
v -0.685841 8.429785 0.550386
v -0.200097 8.429785 0.937754
v 0.405617 8.429785 0.799506
v 0.675185 8.429786 0.239739
v 0.249175 9.918195 -0.106930
v -0.125953 9.918194 -0.192548
v -0.027285 9.918194 0.239742
v -0.426782 9.918194 0.047354
v -0.426782 9.918194 0.432129
v -0.125952 9.918194 0.672034
v 0.249176 9.918194 0.586416
v 0.416124 9.918195 0.239741
vt 0.597420 0.034089
vt 0.465231 0.003918
vt 0.359224 0.088456
vt 0.359224 0.224044
vt 0.465231 0.308582
vt 0.597420 0.278411
vt 0.656250 0.156250
vt 0.375000 0.312500
vt 0.410714 0.312500
vt 0.446429 0.312500
vt 0.482143 0.312500
vt 0.517857 0.312500
vt 0.553571 0.312500
vt 0.589286 0.312500
vt 0.625000 0.312500
vt 0.375000 0.688440
vt 0.410714 0.688440
vt 0.446429 0.688440
vt 0.482143 0.688440
vt 0.517857 0.688440
vt 0.553571 0.688440
vt 0.589286 0.688440
vt 0.625000 0.688440
vt 0.597420 0.721589
vt 0.465231 0.691418
vt 0.359224 0.775956
vt 0.359224 0.911544
vt 0.465231 0.996082
vt 0.597420 0.965911
vt 0.656250 0.843750
vt 0.500000 0.150000
vt 0.500000 0.837500
vt 0.597420 0.965911
vt 0.465231 0.996082
vt 0.359224 0.911544
vt 0.359224 0.775956
vt 0.465231 0.691418
vt 0.597420 0.721589
vt 0.656250 0.843750
vt 0.597420 0.965911
vt 0.465231 0.996082
vt 0.359224 0.911544
vt 0.359224 0.775956
vt 0.465231 0.691418
vt 0.597420 0.721589
vt 0.656250 0.843750
vt 0.597420 0.965911
vt 0.465231 0.996082
vt 0.359224 0.911544
vt 0.359224 0.775956
vt 0.465231 0.691418
vt 0.597420 0.721589
vt 0.656250 0.843750
vt 0.597420 0.965911
vt 0.465231 0.996082
vt 0.359224 0.911544
vt 0.359224 0.775956
vt 0.465231 0.691418
vt 0.597420 0.721589
vt 0.656250 0.843750
vt 0.597420 0.965911
vt 0.465231 0.996082
vt 0.359224 0.911544
vt 0.359224 0.775956
vt 0.465231 0.691418
vt 0.597420 0.721589
vt 0.656250 0.843750
vn 0.524440 -0.540824 -0.657626
vn -0.187170 -0.540824 -0.820047
vn -0.244778 0.088343 -0.965546
vn 0.608457 0.014396 -0.793456
vn -0.757837 -0.540824 -0.364955
vn -0.896509 0.140972 -0.419997
vn -0.757837 -0.540824 0.364955
vn -0.896509 0.140972 0.419997
vn -0.187170 -0.540824 0.820047
vn -0.244778 0.088343 0.965546
vn 0.524439 -0.540824 0.657626
vn 0.608457 0.014396 0.793456
vn 0.841136 -0.540824 0.000000
vn 0.999774 -0.021271 0.000000
vn 0.000000 -1.000000 0.000000
vn 0.605539 0.247172 -0.756458
vn -0.213063 0.253988 -0.943448
vn -0.000001 1.000000 0.000000
vn -0.869690 0.259448 -0.419912
vn -0.869690 0.259448 0.419912
vn -0.213065 0.253986 0.943448
vn 0.605541 0.247169 0.756457
vn 0.969741 0.244135 -0.000000
vn -0.199441 0.205598 -0.958099
vn 0.629834 0.136704 -0.764605
vn -0.865599 0.263564 -0.425761
vn -0.865599 0.263564 0.425761
vn -0.199441 0.205598 0.958099
vn 0.629834 0.136704 0.764605
vn 0.994173 0.107799 0.000000
vn -0.204522 0.132641 -0.969833
vn 0.624268 0.173985 -0.761589
vn -0.893562 0.096787 -0.438383
vn -0.893562 0.096787 0.438383
vn -0.204522 0.132642 0.969833
vn 0.624268 0.173985 0.761590
vn 0.981559 0.191157 -0.000000
vn -0.231544 0.066827 -0.970526
vn 0.604493 0.099154 -0.790416
vn -0.897269 0.005796 -0.441446
vn -0.908610 -0.043912 0.415331
vn -0.238223 -0.044681 0.970182
vn 0.622912 0.010023 0.782228
vn 0.996976 0.076169 -0.015403
vn -0.225595 0.135622 -0.964735
vn 0.628195 0.118332 -0.769005
vn -0.904599 0.096809 -0.415126
vn -0.892450 0.034189 0.449849
vn -0.218911 -0.004736 0.975733
vn 0.612791 0.005574 0.790226
vn 0.998043 0.059147 0.020274
s 1
g Tree
usemtl initialShadingGroup
f 1/8/1 2/9/2 9/17/3 8/16/4
f 2/9/2 3/10/5 10/18/6 9/17/3
f 3/10/5 4/11/7 11/19/8 10/18/6
f 4/11/7 5/12/9 12/20/10 11/19/8
f 5/12/9 6/13/11 13/21/12 12/20/10
f 6/13/11 7/14/13 14/22/14 13/21/12
f 7/14/13 1/15/1 8/23/4 14/22/14
f 2/2/2 1/1/1 15/31/15
f 3/3/5 2/2/2 15/31/15
f 4/4/7 3/3/5 15/31/15
f 5/5/9 4/4/7 15/31/15
f 6/6/11 5/5/9 15/31/15
f 7/7/13 6/6/11 15/31/15
f 1/1/1 7/7/13 15/31/15
f 44/61/16 45/62/17 46/32/18
f 45/62/17 47/63/19 46/32/18
f 47/63/19 48/64/20 46/32/18
f 48/64/20 49/65/21 46/32/18
f 49/65/21 50/66/22 46/32/18
f 50/66/22 51/67/23 46/32/18
f 51/67/23 44/61/16 46/32/18
f 8/29/4 9/28/3 17/34/24 16/33/25
f 9/28/3 10/27/6 18/35/26 17/34/24
f 10/27/6 11/26/8 19/36/27 18/35/26
f 11/26/8 12/25/10 20/37/28 19/36/27
f 12/25/10 13/24/12 21/38/29 20/37/28
f 13/24/12 14/30/14 22/39/30 21/38/29
f 14/30/14 8/29/4 16/33/25 22/39/30
f 16/33/25 17/34/24 24/41/31 23/40/32
f 17/34/24 18/35/26 25/42/33 24/41/31
f 18/35/26 19/36/27 26/43/34 25/42/33
f 19/36/27 20/37/28 27/44/35 26/43/34
f 20/37/28 21/38/29 28/45/36 27/44/35
f 21/38/29 22/39/30 29/46/37 28/45/36
f 22/39/30 16/33/25 23/40/32 29/46/37
f 23/40/32 24/41/31 31/48/38 30/47/39
f 24/41/31 25/42/33 32/49/40 31/48/38
f 25/42/33 26/43/34 33/50/41 32/49/40
f 26/43/34 27/44/35 34/51/42 33/50/41
f 27/44/35 28/45/36 35/52/43 34/51/42
f 28/45/36 29/46/37 36/53/44 35/52/43
f 29/46/37 23/40/32 30/47/39 36/53/44
f 30/47/39 31/48/38 38/55/45 37/54/46
f 31/48/38 32/49/40 39/56/47 38/55/45
f 32/49/40 33/50/41 40/57/48 39/56/47
f 33/50/41 34/51/42 41/58/49 40/57/48
f 34/51/42 35/52/43 42/59/50 41/58/49
f 35/52/43 36/53/44 43/60/51 42/59/50
f 36/53/44 30/47/39 37/54/46 43/60/51
f 37/54/46 38/55/45 45/62/17 44/61/16
f 38/55/45 39/56/47 47/63/19 45/62/17
f 39/56/47 40/57/48 48/64/20 47/63/19
f 40/57/48 41/58/49 49/65/21 48/64/20
f 41/58/49 42/59/50 50/66/22 49/65/21
f 42/59/50 43/60/51 51/67/23 50/66/22
f 43/60/51 37/54/46 44/61/16 51/67/23
